<?xml version="1.0" encoding="UTF-8" standalone="no"?>
<svg xmlns="http://www.w3.org/2000/svg" viewBox="0 0 100 100">
  <defs>
    <radialGradient id="asteroidGradient" cx="50%" cy="50%" r="50%" fx="50%" fy="50%">
      <stop offset="0%" style="stop-color:#8B4513"/>
      <stop offset="70%" style="stop-color:#654321"/>
      <stop offset="100%" style="stop-color:#3D2B1F"/>
    </radialGradient>
  </defs>
  <path d="M50,5 
           C60,5 70,10 80,20 
           C90,30 95,40 95,50 
           C95,60 90,70 80,80 
           C70,90 60,95 50,95 
           C40,95 30,90 20,80 
           C10,70 5,60 5,50 
           C5,40 10,30 20,20 
           C30,10 40,5 50,5 
           Z" 
        fill="url(#asteroidGradient)"
        stroke="#2F1810"
        stroke-width="2">
    <animate attributeName="d" 
             dur="4s"
             repeatCount="indefinite"
             values="M50,5 C60,5 70,10 80,20 C90,30 95,40 95,50 C95,60 90,70 80,80 C70,90 60,95 50,95 C40,95 30,90 20,80 C10,70 5,60 5,50 C5,40 10,30 20,20 C30,10 40,5 50,5 Z;
                     M45,5 C55,8 75,15 85,25 C92,35 90,45 92,55 C93,65 85,75 75,82 C65,88 55,90 45,90 C35,90 25,85 18,75 C12,65 8,55 10,45 C12,35 15,25 25,18 C35,12 35,2 45,5 Z;
                     M50,5 C60,5 70,10 80,20 C90,30 95,40 95,50 C95,60 90,70 80,80 C70,90 60,95 50,95 C40,95 30,90 20,80 C10,70 5,60 5,50 C5,40 10,30 20,20 C30,10 40,5 50,5 Z"
             calcMode="spline"
             keySplines="0.4 0 0.2 1; 0.4 0 0.2 1"/>
  </path>
  <circle cx="30" cy="40" r="8" fill="#654321"/>
  <circle cx="60" cy="35" r="6" fill="#654321"/>
  <circle cx="45" cy="70" r="10" fill="#654321"/>
</svg>
